<svg width="24" height="22" viewBox="0 0 24 22" fill="none" xmlns="http://www.w3.org/2000/svg">
<path d="M20.4611 3.60999C19.9497 3.099 19.3425 2.69364 18.6741 2.41708C18.0058 2.14052 17.2895 1.99817 16.5661 1.99817C15.8427 1.99817 15.1263 2.14052 14.458 2.41708C13.7897 2.69364 13.1825 3.099 12.6711 3.60999L11.6097 4.66999L10.5484 3.60999C9.51535 2.5783 8.11428 1.9987 6.65337 1.9987C5.19247 1.9987 3.7914 2.5783 2.75838 3.60999C1.72536 4.64169 1.14502 6.04096 1.14502 7.49999C1.14502 8.95903 1.72536 10.3583 2.75838 11.39L3.81974 12.45L11.6097 20.23L19.3997 12.45L20.4611 11.39C20.9727 10.8792 21.3786 10.2728 21.6555 9.60535C21.9324 8.93789 22.075 8.22248 22.075 7.49999C22.075 6.77751 21.9324 6.0621 21.6555 5.39464C21.3786 4.72718 20.9727 4.12075 20.4611 3.60999V3.60999Z" stroke="#D4D4D4" stroke-width="2" stroke-linecap="round" stroke-linejoin="round"/>
</svg>
