<svg width="25" height="23" viewBox="0 0 25 23" fill="none" xmlns="http://www.w3.org/2000/svg">
<path d="M16.8917 13.4166C15.3771 13.4166 14.1655 13.7999 13.2568 14.2791C14.6704 15.4291 15.2762 16.7708 15.3771 16.8666L15.4781 17.0583V19.1666H23.5555V17.2499C23.4545 17.2499 21.8391 13.4166 16.8917 13.4166Z" fill="#F39C32"/>
<path d="M16.8918 11.4999C18.8435 11.4999 20.4256 9.99822 20.4256 8.14576C20.4256 6.29331 18.8435 4.7916 16.8918 4.7916C14.9401 4.7916 13.3579 6.29331 13.3579 8.14576C13.3579 9.99822 14.9401 11.4999 16.8918 11.4999Z" fill="#F39C32"/>
<path d="M4.27072 8.14576C4.27072 6.32493 5.88619 4.7916 7.80457 4.7916C9.72295 4.7916 11.3384 6.32493 11.3384 8.14576C11.3384 9.96659 9.72295 11.4999 7.80457 11.4999C5.88619 11.4999 4.27072 9.96659 4.27072 8.14576ZM7.80457 13.4166C2.85718 13.4166 1.2417 17.2499 1.2417 17.2499V19.1666H14.3674V17.2499C14.3674 17.2499 12.752 13.4166 7.80457 13.4166Z" fill="#F39C32"/>
</svg>
